<svg width="25" height="25" viewBox="0 0 25 25" fill="none" xmlns="http://www.w3.org/2000/svg">
<path d="M2 6C2 5.44772 2.44772 5 3 5H22C22.5523 5 23 5.44772 23 6V14H2V6Z" fill="url(#paint0_linear_221_904)"/>
<path d="M22.8516 9.76562H2.53906C2.38366 9.76562 2.23463 9.82736 2.12474 9.93724C2.01486 10.0471 1.95312 10.1962 1.95312 10.3516C1.95312 10.507 2.01486 10.656 2.12474 10.7659C2.23463 10.8758 2.38366 10.9375 2.53906 10.9375H22.8516C23.007 10.9375 23.156 10.8758 23.2659 10.7659C23.3758 10.656 23.4375 10.507 23.4375 10.3516C23.4375 10.1962 23.3758 10.0471 23.2659 9.93724C23.156 9.82736 23.007 9.76562 22.8516 9.76562ZM17.5781 2.14844V7.22656C17.5781 7.38196 17.5164 7.531 17.4065 7.64088C17.2966 7.75077 17.1476 7.8125 16.9922 7.8125C16.8368 7.8125 16.6878 7.75077 16.5779 7.64088C16.468 7.531 16.4062 7.38196 16.4062 7.22656V2.14844C16.4062 1.99304 16.468 1.844 16.5779 1.73412C16.6878 1.62423 16.8368 1.5625 16.9922 1.5625C17.1476 1.5625 17.2966 1.62423 17.4065 1.73412C17.5164 1.844 17.5781 1.99304 17.5781 2.14844Z" fill="#3D3D3D"/>
<path d="M23.4375 6.25V21.875C23.4375 22.2894 23.2729 22.6868 22.9799 22.9799C22.6868 23.2729 22.2894 23.4375 21.875 23.4375H3.125C2.7106 23.4375 2.31317 23.2729 2.02015 22.9799C1.72712 22.6868 1.5625 22.2894 1.5625 21.875V6.25C1.5625 5.8356 1.72712 5.43817 2.02015 5.14515C2.31317 4.85212 2.7106 4.6875 3.125 4.6875H16.4062V5.85938H3.125C3.0214 5.85938 2.92204 5.90053 2.84879 5.97379C2.77553 6.04704 2.73438 6.1464 2.73438 6.25V21.875C2.73438 21.9786 2.77553 22.078 2.84879 22.1512C2.92204 22.2245 3.0214 22.2656 3.125 22.2656H21.875C21.9786 22.2656 22.078 22.2245 22.1512 22.1512C22.2245 22.078 22.2656 21.9786 22.2656 21.875V6.25C22.2656 6.1464 22.2245 6.04704 22.1512 5.97379C22.078 5.90053 21.9786 5.85938 21.875 5.85938H17.5781V4.6875H21.875C22.2894 4.6875 22.6868 4.85212 22.9799 5.14515C23.2729 5.43817 23.4375 5.8356 23.4375 6.25Z" fill="#3D3D3D"/>
<path d="M8.59375 2.14844V4.6875H7.42188V2.14844C7.42188 1.99304 7.48361 1.844 7.59349 1.73412C7.70338 1.62423 7.85241 1.5625 8.00781 1.5625C8.16321 1.5625 8.31225 1.62423 8.42213 1.73412C8.53202 1.844 8.59375 1.99304 8.59375 2.14844ZM7.42188 5.85938H8.59375V7.22656C8.59375 7.38196 8.53202 7.531 8.42213 7.64088C8.31225 7.75077 8.16321 7.8125 8.00781 7.8125C7.85241 7.8125 7.70338 7.75077 7.59349 7.64088C7.48361 7.531 7.42188 7.38196 7.42188 7.22656V5.85938ZM16.4062 4.6875V5.85938H17.5781V4.6875H16.4062Z" fill="#3D3D3D"/>
<path d="M18 13.8436C18.0366 13.8799 18.0656 13.9231 18.0855 13.9707C18.1053 14.0183 18.1155 14.0693 18.1155 14.1209C18.1155 14.1725 18.1053 14.2235 18.0855 14.2711C18.0656 14.3187 18.0366 14.3619 18 14.3983L12.1992 20.199C12.126 20.2718 12.027 20.3126 11.9238 20.3126C11.8206 20.3126 11.7216 20.2718 11.6484 20.199L7.78123 16.3319C7.70767 16.2588 7.66614 16.1595 7.66577 16.0559C7.66541 15.9522 7.70623 15.8527 7.77927 15.7791C7.85231 15.7056 7.95158 15.664 8.05524 15.6637C8.15889 15.6633 8.25845 15.7041 8.33201 15.7772L11.9258 19.3709L17.4492 13.8436C17.5224 13.7708 17.6214 13.73 17.7246 13.73C17.8278 13.73 17.9268 13.7708 18 13.8436Z" fill="#3D3D3D"/>
<defs>
<linearGradient id="paint0_linear_221_904" x1="12.5" y1="5" x2="12.5" y2="14" gradientUnits="userSpaceOnUse">
<stop stop-color="#4354E7" stop-opacity="0.71"/>
<stop offset="0.520833" stop-color="#34D196" stop-opacity="0.4"/>
<stop offset="1" stop-color="#34D196" stop-opacity="0"/>
</linearGradient>
</defs>
</svg>
