<svg
          width="25"
          height="25"
          viewBox="0 0 25 25"
          class="absolute top right-2"
          fill="none"
          xmlns="http://www.w3.org/2000/svg"
        >
          <path
            d="M21.1656 6.26895C18.8344 3.9377 15.05 3.9377 12.7188 6.26895L12.3938 6.59394L12.1625 6.36269C9.87189 4.07207 6.14064 3.90332 3.77189 6.10957C1.28439 8.42832 1.23126 12.3252 3.61564 14.7096L3.94689 15.0408L11.2531 22.3471C11.8813 22.9752 12.9031 22.9752 13.5344 22.3471L21.1656 14.7158C23.4969 12.3846 23.4969 8.60332 21.1656 6.26895ZM8.18751 8.60957C7.68751 8.60957 7.19064 8.75644 6.80314 9.07207C6.57506 9.25568 6.38816 9.48522 6.25459 9.74578C6.12102 10.0063 6.04377 10.2921 6.02785 10.5845C6.01194 10.8768 6.05772 11.1693 6.16221 11.4428C6.26671 11.7163 6.42759 11.9648 6.63439 12.1721C6.87814 12.4158 6.87814 12.8127 6.63439 13.0564L6.55626 13.1346C6.35626 13.3346 6.02814 13.3346 5.82501 13.1346C4.54064 11.8502 4.42814 9.75332 5.66564 8.4252C6.30314 7.74082 7.17814 7.36269 8.10939 7.36269C8.45314 7.36269 8.73439 7.64394 8.73439 7.98769V8.06269C8.73439 8.36582 8.49064 8.60957 8.18751 8.60957Z"
            fill="#FF656E"
          />
        </svg>