<svg width="24" height="24" viewBox="0 0 24 24" fill="none" xmlns="http://www.w3.org/2000/svg">
<path d="M20.319 6.01786C18.081 3.77986 14.448 3.77986 12.21 6.01786L11.898 6.32985L11.676 6.10786C9.47701 3.90886 5.89501 3.74686 3.62101 5.86486C1.23301 8.09086 1.18201 11.8319 3.47101 14.1209L3.78901 14.4389L10.803 21.4529C11.406 22.0559 12.387 22.0559 12.993 21.4529L20.319 14.1269C22.557 11.8889 22.557 8.25886 20.319 6.01786ZM7.86001 8.26486C7.38001 8.26486 6.90301 8.40586 6.53101 8.70886C6.31205 8.88512 6.13263 9.10548 6.0044 9.35562C5.87617 9.60576 5.80201 9.88007 5.78673 10.1607C5.77145 10.4414 5.8154 10.7222 5.91572 10.9848C6.01603 11.2473 6.17047 11.4859 6.36901 11.6849C6.60301 11.9189 6.60301 12.2999 6.36901 12.5339L6.29401 12.6089C6.10201 12.8009 5.78701 12.8009 5.59201 12.6089C4.35901 11.3759 4.25101 9.36286 5.43901 8.08786C6.05101 7.43086 6.89101 7.06785 7.78501 7.06785C8.11501 7.06785 8.38501 7.33786 8.38501 7.66786V7.73985C8.38501 8.03085 8.15101 8.26486 7.86001 8.26486Z" fill="url(#paint0_linear_221_1532)"/>
<defs>
<linearGradient id="paint0_linear_221_1532" x1="17" y1="18" x2="4.5" y2="5.5" gradientUnits="userSpaceOnUse">
<stop stop-color="#4354E7"/>
<stop offset="1" stop-color="#34D196"/>
</linearGradient>
</defs>
</svg>
