<svg width="24" height="24" viewBox="0 0 24 24" fill="none" xmlns="http://www.w3.org/2000/svg">
<path d="M20.393 18.1689C20.3367 18.0025 20.3742 17.8221 20.482 17.6838C21.7383 16.1135 22.4789 14.1799 22.4789 12.0893C22.4789 6.82051 17.7797 2.54785 11.9836 2.54785C6.18751 2.54785 1.49298 6.81816 1.49298 12.0869C1.49298 17.3557 6.1922 21.6283 11.9883 21.6283C14.1164 21.6283 16.0969 21.0518 17.7516 20.0604C17.8899 19.9783 18.0492 19.9479 18.2063 19.9807L20.8008 20.5104C20.9813 20.5479 21.1336 20.3744 21.075 20.201L20.393 18.1689ZM10.5563 16.3807H7.6922C6.90236 16.3807 6.26017 15.7408 6.26017 14.9486C6.26017 14.1588 6.90001 13.5166 7.6922 13.5166H10.5539C11.3438 13.5166 11.9859 14.1564 11.9859 14.9486C11.9859 15.7408 11.3461 16.3807 10.5563 16.3807ZM16.2797 11.6111H7.6922C6.90236 11.6111 6.26017 10.9713 6.26017 10.1791C6.26017 9.38926 6.90001 8.74707 7.6922 8.74707H16.2774C17.0672 8.74707 17.7094 9.38691 17.7094 10.1791C17.7094 10.9713 17.0695 11.6111 16.2797 11.6111Z" fill="#A7B0FF"/>
</svg>
