<svg width="24" height="24" viewBox="0 0 24 24" fill="none" xmlns="http://www.w3.org/2000/svg">
<path d="M13.0205 2.76536L20.3535 8.02861C20.7082 8.2832 20.9972 8.61858 21.1966 9.00701C21.3959 9.39544 21.4999 9.82576 21.5 10.2624V18.7499C21.5 20.2686 20.2688 21.4999 18.75 21.4999H15V17.4999C15 15.8431 13.6568 14.4999 12 14.4999C10.3433 14.4999 9 15.8431 9 17.4999V21.4999H5.25C3.73125 21.4999 2.5 20.2686 2.5 18.7499V10.2626C2.50002 9.82596 2.60402 9.3956 2.80338 9.00712C3.00275 8.61864 3.29176 8.28322 3.6465 8.02861L10.9795 2.76536C11.2769 2.55185 11.6339 2.43701 12 2.43701C12.3661 2.43701 12.7231 2.55185 13.0205 2.76536Z" fill="url(#paint0_linear_221_919)"/>
<defs>
<linearGradient id="paint0_linear_221_919" x1="21" y1="20" x2="3" y2="8.5" gradientUnits="userSpaceOnUse">
<stop offset="0.330964" stop-color="#4354E7"/>
<stop offset="1" stop-color="#34D196"/>
</linearGradient>
</defs>
</svg>
