<svg width="24" height="24" viewBox="0 0 24 24" fill="none" xmlns="http://www.w3.org/2000/svg">
<path d="M20.319 6.01786C18.081 3.77986 14.448 3.77986 12.21 6.01786L11.898 6.32985L11.676 6.10786C9.477 3.90886 5.895 3.74686 3.621 5.86486C1.233 8.09086 1.182 11.8319 3.471 14.1209L3.789 14.4389L10.803 21.4529C11.406 22.0559 12.387 22.0559 12.993 21.4529L20.319 14.1269C22.557 11.8889 22.557 8.25886 20.319 6.01786ZM7.86 8.26486C7.38 8.26486 6.903 8.40586 6.531 8.70886C6.31204 8.88512 6.13262 9.10548 6.00439 9.35562C5.87617 9.60576 5.802 9.88007 5.78673 10.1607C5.77145 10.4414 5.81539 10.7222 5.91571 10.9848C6.01603 11.2473 6.17047 11.4859 6.369 11.6849C6.603 11.9189 6.603 12.2999 6.369 12.5339L6.294 12.6089C6.102 12.8009 5.787 12.8009 5.592 12.6089C4.359 11.3759 4.251 9.36286 5.439 8.08786C6.051 7.43086 6.891 7.06785 7.785 7.06785C8.115 7.06785 8.385 7.33786 8.385 7.66786V7.73985C8.385 8.03085 8.151 8.26486 7.86 8.26486Z" fill="#A7B0FF"/>
</svg>
