<?xml version="1.0" standalone="no"?><!DOCTYPE svg PUBLIC "-//W3C//DTD SVG 1.1//EN" "http://www.w3.org/Graphics/SVG/1.1/DTD/svg11.dtd"><svg t="1682480902809" class="icon" viewBox="0 0 1024 1024" version="1.1" xmlns="http://www.w3.org/2000/svg" p-id="25318" width="24" height="24" xmlns:xlink="http://www.w3.org/1999/xlink"><path d="M896 505.514667v378.453333c0 19.029333-1.962667 25.898667-5.717333 32.853333a38.741333 38.741333 0 0 1-16.128 16.128c-6.912 3.754667-13.824 5.717333-32.853334 5.717334h-189.269333c-19.029333 0-25.898667-1.962667-32.853333-5.717334a38.741333 38.741333 0 0 1-16.128-16.128c-3.754667-6.954667-5.717333-13.824-5.717334-32.853333v-189.269333c0-19.029333-1.962667-25.898667-5.717333-32.853334a38.741333 38.741333 0 0 0-16.128-16.170666c-6.912-3.712-13.824-5.674667-32.853333-5.674667h-61.269334c-19.029333 0-25.898667 1.962667-32.853333 5.674667a38.741333 38.741333 0 0 0-16.128 16.170666c-3.754667 6.912-5.717333 13.824-5.717333 32.853334v189.269333c0 19.029333-1.962667 25.898667-5.717334 32.853333a38.741333 38.741333 0 0 1-16.128 16.128c-6.954667 3.754667-13.824 5.717333-32.853333 5.717334H182.698667c-19.029333 0-25.898667-1.962667-32.853334-5.717334a38.741333 38.741333 0 0 1-16.128-16.128c-3.754667-6.954667-5.717333-13.824-5.717333-32.853333v-369.962667c0-35.712 1.536-48.213333 5.162667-62.037333a112.213333 112.213333 0 0 1 17.578666-37.546667l4.266667-5.674666c7.424-9.386667 17.237333-18.944 40.106667-37.973334l280.96-234.154666c13.098667-10.922667 18.816-13.738667 25.642666-15.616a38.485333 38.485333 0 0 1 20.565334 0c6.826667 1.877333 12.544 4.693333 25.642666 15.616l281.002667 234.154666c27.392 22.826667 36.053333 32.042667 44.330667 43.648 8.277333 11.605333 13.952 23.765333 17.578666 37.546667 3.328 12.629333 4.906667 24.234667 5.12 53.546667z" fill="#8a8a8a" p-id="25319"></path></svg>