<svg width="23" height="23" viewBox="0 0 23 23" fill="none" xmlns="http://www.w3.org/2000/svg">
<path d="M17.7859 12.9474H15.2312C16.0362 12.3681 16.6919 11.6057 17.1441 10.7231C17.5964 9.84048 17.8322 8.86295 17.8322 7.87121C17.834 4.42301 15.0264 1.61719 11.5782 1.61719C8.12996 1.61719 5.32414 4.42301 5.32414 7.87121C5.32411 8.86295 5.55996 9.84048 6.0122 10.7231C6.46445 11.6057 7.12013 12.3681 7.92512 12.9474H5.37041C4.54042 12.9483 3.74469 13.2785 3.15779 13.8654C2.57089 14.4523 2.24076 15.248 2.23981 16.078V17.5272C2.24064 18.3572 2.57072 19.1531 3.15763 19.7401C3.74454 20.3271 4.54034 20.6573 5.37041 20.6582H17.7859C18.616 20.6573 19.4118 20.3271 19.9987 19.7401C20.5856 19.1531 20.9157 18.3572 20.9165 17.5272V16.078C20.9156 15.248 20.5854 14.4523 19.9985 13.8654C19.4116 13.2785 18.6159 12.9483 17.7859 12.9474ZM11.5 4.5708C10.625 4.57187 9.78616 4.91994 9.16744 5.53865C8.54873 6.15737 8.20066 6.99622 8.19959 7.87121C8.19959 8.02609 8.13806 8.17463 8.02855 8.28415C7.91903 8.39367 7.77049 8.4552 7.61561 8.4552C7.46072 8.4552 7.31219 8.39367 7.20267 8.28415C7.09315 8.17463 7.03162 8.02609 7.03162 7.87121C7.03305 6.68656 7.50428 5.55084 8.34196 4.71317C9.17963 3.87549 10.3154 3.40426 11.5 3.40283C11.6549 3.40283 11.8034 3.46436 11.9129 3.57388C12.0225 3.6834 12.084 3.83193 12.084 3.98682C12.084 4.1417 12.0225 4.29024 11.9129 4.39976C11.8034 4.50927 11.6549 4.5708 11.5 4.5708Z" fill="url(#paint0_linear_221_1447)"/>
<defs>
<linearGradient id="paint0_linear_221_1447" x1="11.5782" y1="1.61719" x2="11.5782" y2="20.6582" gradientUnits="userSpaceOnUse">
<stop stop-color="#38B4A9"/>
<stop offset="1" stop-color="#4455E8"/>
</linearGradient>
</defs>
</svg>
