<?xml version="1.0" standalone="no"?><!DOCTYPE svg PUBLIC "-//W3C//DTD SVG 1.1//EN" "http://www.w3.org/Graphics/SVG/1.1/DTD/svg11.dtd"><svg t="1682390886142" class="icon" viewBox="0 0 1024 1024" version="1.1" xmlns="http://www.w3.org/2000/svg" p-id="2405" width="32" height="32" xmlns:xlink="http://www.w3.org/1999/xlink"><path d="M850.432 512h-86.016L511.744 801.92 252.288 512h-79.104c-24.832 0-45.312 20.352-45.312 45.312v293.504c0 24.832 20.352 45.312 45.312 45.312h677.12c24.832 0 45.312-20.352 45.312-45.312V557.312c0-24.96-20.352-45.312-45.184-45.312z" fill="#ffffff" p-id="2406"></path><path d="M306.432 541.696l19.328 22.016L508.416 771.84l182.528-208.128 19.328-22.016c14.592-18.688 26.624-39.424 35.584-61.696 11.904-29.568 18.432-61.824 18.432-95.744 0-141.44-114.56-256-256-256s-256 114.56-256 256c0 33.792 6.528 66.176 18.56 95.744 8.96 22.272 20.992 43.008 35.584 61.696z m201.984-285.44c70.656 0 128 57.344 128 128s-57.344 128-128 128-128-57.344-128-128 57.216-128 128-128z" fill="#ffffff" p-id="2407"></path></svg>