<svg width="24" height="23" viewBox="0 0 24 23" fill="none" xmlns="http://www.w3.org/2000/svg">
<path d="M12 14.2378L7.7574 10.0683L8.6058 9.23388L12 12.57L15.3942 9.23388L16.2426 10.0678L12 14.2378ZM16.2426 10.0683L15.3942 9.23388C16.0655 8.57407 16.5226 7.73342 16.7078 6.81825C16.893 5.90309 16.7979 4.9545 16.4346 4.09243C16.0713 3.23037 15.4561 2.49356 14.6667 1.97516C13.8774 1.45677 12.9493 1.18008 12 1.18008C11.0507 1.18008 10.1226 1.45677 9.33329 1.97516C8.54394 2.49356 7.92871 3.23037 7.5654 4.09243C7.20209 4.9545 7.10702 5.90309 7.29221 6.81825C7.4774 7.73342 7.93453 8.57407 8.6058 9.23388L7.758 10.0672C5.415 7.76427 5.415 4.03008 7.758 1.72718C10.101 -0.575726 13.9002 -0.575726 16.2432 1.72718C18.5862 4.03008 18.5862 7.76427 16.2432 10.0672L16.2426 10.0683ZM12 7.07723C11.8424 7.07723 11.6864 7.04672 11.5408 6.98745C11.3952 6.92817 11.2629 6.84129 11.1515 6.73177C11.04 6.62225 10.9516 6.49222 10.8913 6.34912C10.831 6.20603 10.8 6.05265 10.8 5.89776C10.8 5.74287 10.831 5.5895 10.8913 5.4464C10.9516 5.3033 11.04 5.17328 11.1515 5.06376C11.2629 4.95423 11.3952 4.86735 11.5408 4.80808C11.6864 4.74881 11.8424 4.7183 12 4.7183C12.3183 4.7183 12.6235 4.84256 12.8485 5.06376C13.0736 5.28495 13.2 5.58495 13.2 5.89776C13.2 6.21058 13.0736 6.51058 12.8485 6.73177C12.6235 6.95296 12.3183 7.07723 12 7.07723ZM8.226 17.1752C8.16735 17.1212 8.12036 17.0561 8.0878 16.9838C8.05525 16.9116 8.0378 16.8336 8.0365 16.7546C8.03519 16.6756 8.05006 16.5971 8.08021 16.5239C8.11036 16.4506 8.15518 16.3841 8.21201 16.3282C8.26884 16.2723 8.33651 16.2282 8.41102 16.1985C8.48553 16.1688 8.56535 16.1541 8.64574 16.1554C8.72612 16.1566 8.80544 16.1737 8.87898 16.2056C8.95251 16.2376 9.01876 16.2837 9.0738 16.3413L12.1854 19.3991L21.7218 10.0259H19.2V8.84642H22.1964C22.4327 8.84573 22.6668 8.89081 22.8854 8.9791C23.1039 9.06738 23.3026 9.19715 23.4701 9.36096C23.6376 9.52478 23.7707 9.71943 23.8616 9.93381C23.9525 10.1482 23.9995 10.3781 24 10.6103V21.2367C23.9984 21.7052 23.8078 22.154 23.47 22.4845C23.1323 22.8151 22.6749 23.0005 22.1982 23H1.8018C1.56563 23.0005 1.33168 22.9553 1.11329 22.867C0.894907 22.7786 0.696378 22.6488 0.52905 22.485C0.361721 22.3212 0.228873 22.1266 0.138096 21.9123C0.0473192 21.698 0.000393491 21.4682 0 21.2361V10.6097C7.60599e-05 10.3774 0.0468495 10.1474 0.137634 9.93284C0.228419 9.71833 0.361426 9.52355 0.529017 9.35971C0.696607 9.19586 0.895479 9.06617 1.11421 8.97809C1.33294 8.89 1.56722 8.84526 1.8036 8.84642H4.8V10.0259H1.8036C1.72476 10.0247 1.64647 10.039 1.57329 10.0678C1.50011 10.0967 1.43349 10.1395 1.37732 10.1939C1.32115 10.2483 1.27655 10.3131 1.24611 10.3846C1.21566 10.4561 1.19999 10.5328 1.2 10.6103V18.9645L6.8262 13.4345C6.88185 13.38 6.94791 13.3369 7.02058 13.3076C7.09325 13.2782 7.17109 13.2633 7.24965 13.2636C7.3282 13.264 7.40592 13.2796 7.47833 13.3095C7.55074 13.3394 7.61642 13.3831 7.6716 13.4381C7.9056 13.6681 7.902 14.0455 7.6746 14.2684L1.2696 20.5644C1.24797 20.5858 1.2247 20.6055 1.2 20.6234V21.2367C1.2 21.5593 1.4682 21.8211 1.8018 21.8211H12.9516L8.2254 17.1758L8.226 17.1752ZM22.1976 21.8205C22.3562 21.8212 22.5086 21.76 22.6215 21.6505C22.7344 21.541 22.7986 21.392 22.8 21.2361V10.6262C22.7829 10.6483 22.7642 10.6692 22.7442 10.6887L13.0338 20.2336L14.5578 21.7315C14.586 21.7592 14.6112 21.7893 14.6328 21.8205H22.1988H22.1976Z" fill="#3D3D3D"/>
</svg>
