<svg width="25" height="25" viewBox="0 0 25 25" fill="none" xmlns="http://www.w3.org/2000/svg">
<path d="M7 8.5C6.99995 9.22225 7.14217 9.93744 7.41855 10.6047C7.69493 11.272 8.10004 11.8783 8.61077 12.3891C9.1215 12.8998 9.72783 13.3049 10.3951 13.5813C11.0625 13.8577 11.7777 14 12.5 14C13.2223 14 13.9375 13.8577 14.6049 13.5813C15.2722 13.3049 15.8785 12.8998 16.3892 12.3891C16.9 11.8783 17.3051 11.272 17.5815 10.6047C17.8578 9.93744 18.0001 9.22225 18 8.5C18.0001 7.77775 17.8578 7.06256 17.5815 6.39527C17.3051 5.72798 16.9 5.12166 16.3892 4.61094C15.8785 4.10021 15.2722 3.69508 14.6049 3.41867C13.9375 3.14226 13.2223 3 12.5 3C11.7777 3 11.0625 3.14226 10.3951 3.41867C9.72783 3.69508 9.1215 4.10021 8.61077 4.61094C8.10004 5.12166 7.69493 5.72798 7.41855 6.39527C7.14217 7.06256 6.99995 7.77775 7 8.5V8.5Z" fill="url(#paint0_linear_221_913)"/>
<path d="M12.5 14.0833C9.16665 14.0833 6.45831 11.375 6.45831 8.04167C6.45831 4.70833 9.16665 2 12.5 2C15.8333 2 18.5416 4.70833 18.5416 8.04167C18.5416 11.375 15.8333 14.0833 12.5 14.0833ZM12.5 3.25C9.87498 3.25 7.70831 5.41667 7.70831 8.04167C7.70831 10.6667 9.87498 12.8333 12.5 12.8333C15.125 12.8333 17.2916 10.6667 17.2916 8.04167C17.2916 5.41667 15.125 3.25 12.5 3.25Z" fill="#3D3D3D"/>
<path d="M17.1666 23.8749H0.833313V17.7916H3.83331C4.33331 17.2916 5.79165 15.9583 7.33331 15.6249H15C15.9583 15.6249 16.7083 16.4166 16.7083 17.3333C16.7083 18.2499 15.9166 19.0416 15 19.0416H11.7916C11.75 19.0416 11.7083 19.0833 11.7083 19.1249C11.7083 19.1666 11.7083 19.1666 11.75 19.2083C11.75 19.2083 11.7916 19.2499 11.8333 19.2499H17.25L21.3333 15.9166C22.0833 15.2916 23.1666 15.4166 23.7916 16.1666C24.0833 16.5416 24.2083 16.9999 24.1666 17.4583C24.125 17.9166 23.9166 18.3333 23.5416 18.6249L17.1666 23.8749ZM2.08331 22.6249H16.7083L22.7083 17.6666C22.7916 17.5833 22.875 17.4583 22.875 17.3333C22.875 17.2083 22.8333 17.0833 22.75 16.9583C22.5833 16.7499 22.25 16.7083 22.0416 16.9166L17.5833 20.5416H11.75C11.375 20.5416 11.0416 20.4166 10.7916 20.1666C10.5416 19.9166 10.375 19.5833 10.375 19.2083C10.375 18.4583 11 17.8749 11.7083 17.8749H15C15.25 17.8749 15.4583 17.6666 15.4583 17.4166C15.4583 17.1666 15.25 16.9583 15 16.9583H7.58331C6.33331 17.2916 4.99998 18.4999 4.58331 18.9583L4.41665 19.1666H2.08331V22.6249V22.6249ZM12.5 7.66659C12.3333 7.66659 12.125 7.58326 12 7.45826L10.4166 5.54159C10.2083 5.29159 10.25 4.87493 10.5 4.66659C10.75 4.45826 11.1666 4.49993 11.375 4.74993L12.5 6.08326L13.625 4.74993C13.8333 4.49993 14.25 4.45826 14.5 4.66659C14.75 4.87493 14.7916 5.29159 14.5833 5.54159L12.9583 7.45826C12.875 7.62493 12.6666 7.66659 12.5 7.66659V7.66659ZM14.4166 9.62493H10.5416C10.2083 9.62493 9.91665 9.33326 9.91665 8.99993C9.91665 8.6666 10.2083 8.37493 10.5416 8.37493H14.4166C14.75 8.37493 15.0416 8.6666 15.0416 8.99993C15.0416 9.33326 14.7916 9.62493 14.4166 9.62493Z" fill="#3D3D3D"/>
<path d="M14.4167 7.6665H10.5417C10.2084 7.6665 9.91669 7.37484 9.91669 7.0415C9.91669 6.70817 10.2084 6.4165 10.5417 6.4165H14.4167C14.75 6.4165 15.0417 6.70817 15.0417 7.0415C15.0417 7.37484 14.7917 7.6665 14.4167 7.6665Z" fill="#3D3D3D"/>
<path d="M12.5 11.5415C12.1667 11.5415 11.875 11.2498 11.875 10.9165V7.0415C11.875 6.70817 12.1667 6.4165 12.5 6.4165C12.8333 6.4165 13.125 6.70817 13.125 7.0415V10.9165C13.125 11.2498 12.8333 11.5415 12.5 11.5415Z" fill="#3D3D3D"/>
<defs>
<linearGradient id="paint0_linear_221_913" x1="12.5" y1="3" x2="12.5" y2="14" gradientUnits="userSpaceOnUse">
<stop stop-color="#4354E7" stop-opacity="0.71"/>
<stop offset="0.604167" stop-color="#34D196" stop-opacity="0.45"/>
<stop offset="1" stop-color="#34D196" stop-opacity="0"/>
</linearGradient>
</defs>
</svg>
