<svg width="23" height="23" viewBox="0 0 23 23" fill="none" xmlns="http://www.w3.org/2000/svg">
<path d="M15.6071 3.28571V4.51786H16.8393V3.28571H15.6071ZM1.23214 4.92857V21.3571C1.23214 21.4661 1.27541 21.5705 1.35244 21.6476C1.42946 21.7246 1.53393 21.7679 1.64286 21.7679H10.0625C10.2259 21.7679 10.3826 21.8328 10.4981 21.9483C10.6137 22.0638 10.6786 22.2205 10.6786 22.3839C10.6786 22.5473 10.6137 22.704 10.4981 22.8196C10.3826 22.9351 10.2259 23 10.0625 23H1.64286C1.20714 23 0.789277 22.8269 0.481182 22.5188C0.173086 22.2107 0 21.7929 0 21.3571V4.92857C0 4.49286 0.173086 4.07499 0.481182 3.7669C0.789277 3.4588 1.20714 3.28571 1.64286 3.28571H15.6071V4.51786H1.64286C1.53393 4.51786 1.42946 4.56113 1.35244 4.63815C1.27541 4.71518 1.23214 4.81964 1.23214 4.92857ZM23 4.92857V10.8839C23 11.0473 22.9351 11.204 22.8196 11.3196C22.704 11.4351 22.5473 11.5 22.3839 11.5C22.2205 11.5 22.0638 11.4351 21.9483 11.3196C21.8328 11.204 21.7679 11.0473 21.7679 10.8839V4.92857C21.7679 4.81964 21.7246 4.71518 21.6476 4.63815C21.5705 4.56113 21.4661 4.51786 21.3571 4.51786H16.8393V3.28571H21.3571C21.7929 3.28571 22.2107 3.4588 22.5188 3.7669C22.8269 4.07499 23 4.49286 23 4.92857ZM7.39286 0.616071V3.28571H6.16071V0.616071C6.16071 0.452679 6.22562 0.295979 6.34116 0.180443C6.45669 0.0649073 6.61339 0 6.77679 0C6.94018 0 7.09688 0.0649073 7.21241 0.180443C7.32795 0.295979 7.39286 0.452679 7.39286 0.616071Z" fill="#3D3D3D"/>
<path d="M6.16077 4.51786H7.39291V5.95536C7.39291 6.11875 7.328 6.27545 7.21247 6.39099C7.09693 6.50652 6.94023 6.57143 6.77684 6.57143C6.61345 6.57143 6.45675 6.50652 6.34121 6.39099C6.22567 6.27545 6.16077 6.11875 6.16077 5.95536V4.51786ZM22.384 8.625H1.02684C0.863446 8.625 0.706745 8.68991 0.59121 8.80544C0.475674 8.92098 0.410767 9.07768 0.410767 9.24107C0.410767 9.40446 0.475674 9.56116 0.59121 9.6767C0.706745 9.79223 0.863446 9.85714 1.02684 9.85714H22.384C22.5474 9.85714 22.7041 9.79223 22.8196 9.6767C22.9351 9.56116 23.0001 9.40446 23.0001 9.24107C23.0001 9.07768 22.9351 8.92098 22.8196 8.80544C22.7041 8.68991 22.5474 8.625 22.384 8.625ZM16.8393 0.616071V5.95536C16.8393 6.11875 16.7744 6.27545 16.6589 6.39099C16.5434 6.50652 16.3867 6.57143 16.2233 6.57143C16.0599 6.57143 15.9032 6.50652 15.7876 6.39099C15.6721 6.27545 15.6072 6.11875 15.6072 5.95536V0.616071C15.6072 0.452679 15.6721 0.295979 15.7876 0.180443C15.9032 0.0649073 16.0599 0 16.2233 0C16.3867 0 16.5434 0.0649073 16.6589 0.180443C16.7744 0.295979 16.8393 0.452679 16.8393 0.616071Z" fill="#3D3D3D"/>
<path d="M3.49107 12.3213H11.2946C11.7054 12.3213 11.9107 12.5266 11.9107 12.9374C11.9107 13.3481 11.7054 13.5534 11.2946 13.5534H3.49107C3.08036 13.5534 2.875 13.3481 2.875 12.9374C2.875 12.5266 3.08036 12.3213 3.49107 12.3213Z" fill="#3D3D3D"/>
<path d="M3.49107 15.1963H11.2946C11.7054 15.1963 11.9107 15.4016 11.9107 15.8124C11.9107 16.2231 11.7054 16.4284 11.2946 16.4284H3.49107C3.08036 16.4284 2.875 16.2231 2.875 15.8124C2.875 15.4016 3.08036 15.1963 3.49107 15.1963Z" fill="#3D3D3D"/>
<path d="M3.49107 18.0713H11.2946C11.7054 18.0713 11.9107 18.2766 11.9107 18.6874C11.9107 19.0981 11.7054 19.3034 11.2946 19.3034H3.49107C3.08036 19.3034 2.875 19.0981 2.875 18.6874C2.875 18.2766 3.08036 18.0713 3.49107 18.0713Z" fill="#3D3D3D"/>
<path d="M22.7618 14.0093L20.4906 11.738C20.4168 11.6625 20.3286 11.6025 20.2313 11.5616C20.1339 11.5206 20.0294 11.4995 19.9238 11.4995C19.8182 11.4995 19.7137 11.5206 19.6163 11.5616C19.519 11.6025 19.4308 11.6625 19.357 11.738L17.6608 13.4343L12.6829 18.408C12.5894 18.5046 12.5192 18.6211 12.4775 18.7489L11.5904 21.7677L11.5329 21.9689C11.501 22.09 11.4971 22.2168 11.5217 22.3396C11.5463 22.4624 11.5986 22.578 11.6747 22.6775C11.7508 22.777 11.8487 22.8577 11.9608 22.9136C12.0728 22.9695 12.1962 22.9989 12.3215 22.9998C12.3992 22.9987 12.4765 22.9876 12.5515 22.967L15.7674 22.0182C15.8983 21.9838 16.0167 21.9126 16.1083 21.8129L16.1534 21.7677L16.8188 21.1064L17.365 20.5355L17.6608 20.2398L18.8929 19.0077L22.1786 15.722L22.7454 15.1511C22.8227 15.0779 22.8846 14.99 22.9274 14.8926C22.9702 14.7951 22.9931 14.6901 22.9946 14.5836C22.9961 14.4772 22.9763 14.3716 22.9363 14.2729C22.8964 14.1743 22.837 14.0846 22.7618 14.0093ZM15.5209 21.2502L13.759 21.7677L12.3215 22.1784L12.4488 21.7677L13.2702 18.9748L13.9643 18.2684L16.2315 20.5355L15.5209 21.2502ZM18.8929 17.8864L16.8024 19.977L14.527 17.7016L18.7902 13.4384L18.8929 13.5534L21.0615 15.7261L18.8929 17.8864ZM21.6283 15.147L19.357 12.8716L19.9238 12.3212L22.1786 14.5761L21.6283 15.147Z" fill="#3D3D3D"/>
</svg>
