<?xml version="1.0" standalone="no"?><!DOCTYPE svg PUBLIC "-//W3C//DTD SVG 1.1//EN" "http://www.w3.org/Graphics/SVG/1.1/DTD/svg11.dtd"><svg t="1682391699738" class="icon" viewBox="0 0 1070 1024" version="1.1" xmlns="http://www.w3.org/2000/svg" p-id="9572" width="33.4375" height="32" xmlns:xlink="http://www.w3.org/1999/xlink"><path d="M786.292364 93.090909c20.898909 0 37.981091 17.082182 37.981091 37.981091l-0.791273 441.437091a183.761455 183.761455 0 0 0-217.693091 31.744 184.32 184.32 0 0 0-6.888727 253.067636H196.189091a38.074182 38.074182 0 0 1-37.934546-37.981091l0.791273-688.267636c0-20.898909 17.035636-37.981091 37.934546-37.981091h589.312z m-330.007273 311.435636H271.266909c-26.065455 0-47.150545 16.290909-47.150545 36.352 0 20.107636 21.085091 36.398545 47.150545 36.398546h184.925091c26.065455 0 47.197091-16.290909 47.197091-36.398546 0-20.061091-21.131636-36.352-47.197091-36.352zM378.88 570.368H255.534545c-17.314909 0-31.371636 16.290909-31.371636 36.305455 0 20.107636 14.056727 36.398545 31.418182 36.398545h123.345454c17.314909 0 31.418182-16.290909 31.418182-36.352 0-20.107636-14.103273-36.352-31.464727-36.352z m226.909091-341.271273h-345.367273a36.305455 36.305455 0 0 0 0 72.704h345.367273a36.305455 36.305455 0 0 0 0-72.704z" fill="#ffffff" p-id="9573"></path><path d="M892.276364 839.68l-50.734546-50.827636a121.018182 121.018182 0 0 0-21.783273-141.265455 120.692364 120.692364 0 0 0-147.083636-18.432l75.077818 75.170909a9.076364 9.076364 0 0 1 0 12.8l-29.137454 29.370182a9.029818 9.029818 0 0 1-12.8 0l-75.077818-75.170909a121.111273 121.111273 0 0 0 18.432 147.269818 120.552727 120.552727 0 0 0 141.079272 21.829818l50.734546 50.827637a36.305455 36.305455 0 1 0 51.293091-51.572364z" fill="#ffffff" p-id="9574"></path></svg>