<svg width="24" height="24" viewBox="0 0 24 24" fill="none" xmlns="http://www.w3.org/2000/svg">
<path d="M20.375 0H1.625C1.3125 0 1 0.305556 1 0.611111V21.3889C1 21.7556 1.3125 22 1.625 22H11C11.375 22 11.625 21.7556 11.625 21.3889C11.625 21.0222 11.375 20.7778 11 20.7778H2.25V1.22222H19.75V10.3889C19.75 10.7556 20 11 20.375 11C20.75 11 21 10.7556 21 10.3889V0.611111C21 0.244445 20.6875 0 20.375 0Z" fill="#3D3D3D"/>
<path fill-rule="evenodd" clip-rule="evenodd" d="M17.5838 17.1568C17.8493 16.6636 18 16.0994 18 15.5C18 13.567 16.433 12 14.5 12C12.567 12 11 13.567 11 15.5C11 17.433 12.567 19 14.5 19C15.1061 19 15.6762 18.8459 16.1733 18.5749L20.018 22.3143L21.4124 20.8805L17.5838 17.1568Z" fill="url(#paint0_linear_221_900)"/>
<path d="M14.28 10.8C13.62 10.8 12.96 10.98 12.36 11.28C12 11.46 11.94 11.94 12.24 12.24L14.28 14.28L13.56 15L11.52 12.96C11.4 12.84 11.28 12.78 11.1 12.78C10.86 12.78 10.68 12.9 10.56 13.14C9.78 14.7 10.02 16.68 11.34 18C12.18 18.84 13.2 19.2 14.28 19.2C14.76 19.2 15.24 19.14 15.66 18.96L19.08 22.26L19.5 22.68C19.74 22.92 20.1 22.92 20.34 22.68L20.76 22.26L21.6 21.42L22.02 21C22.26 20.76 22.26 20.4 22.02 20.16L21.6 19.74L18.18 16.44C18.72 14.94 18.36 13.26 17.22 12.06C16.38 11.22 15.3 10.8 14.28 10.8ZM17.04 16.02C16.86 16.44 16.98 16.92 17.34 17.28L20.76 20.58L19.92 21.42L16.5 18.12C16.26 17.88 15.96 17.76 15.66 17.76C15.54 17.76 15.42 17.76 15.24 17.82C14.94 17.94 14.58 18 14.22 18C13.44 18 12.66 17.7 12.12 17.1C11.4 16.38 11.1 15.42 11.28 14.46L12.66 15.84C12.9 16.08 13.2 16.2 13.5 16.2C13.8 16.2 14.1 16.08 14.34 15.84L15.06 15.12C15.54 14.64 15.54 13.86 15.06 13.44L13.68 12.06C13.86 12 14.04 12 14.22 12C15 12 15.78 12.3 16.32 12.9C17.16 13.68 17.46 14.88 17.04 16.02ZM10.8 10.2C10.8 9.84 10.5 9.6 10.2 9.6H6.6C6.3 9.6 6 9.84 6 10.2C6 10.56 6.3 10.8 6.6 10.8H10.2C10.5 10.8 10.8 10.5 10.8 10.2ZM8.34 13.2H6.72C6.36 13.2 6.06 13.44 6.06 13.8C6.06 14.16 6.36 14.4 6.72 14.4H8.34C8.7 14.4 9 14.16 9 13.8C9 13.44 8.7 13.2 8.34 13.2ZM8.34 16.8H6.72C6.36 16.8 6.06 17.04 6.06 17.4C6.06 17.76 6.36 18 6.72 18H8.34C8.7 18 9 17.76 9 17.4C9 17.04 8.7 16.8 8.34 16.8ZM6.6 7.2H17.4C17.7 7.2 18 6.9 18 6.6C18 6.3 17.7 6 17.4 6H6.6C6.3 6 6 6.3 6 6.6C6 6.9 6.3 7.2 6.6 7.2Z" fill="#3D3D3D"/>
<defs>
<linearGradient id="paint0_linear_221_900" x1="20.5" y1="21.5" x2="12.5" y2="13" gradientUnits="userSpaceOnUse">
<stop offset="0.119792" stop-color="#4354E7" stop-opacity="0.62"/>
<stop offset="0.552083" stop-color="#34D196" stop-opacity="0.4"/>
<stop offset="0.791667" stop-color="#34D196" stop-opacity="0"/>
</linearGradient>
</defs>
</svg>
