<svg width="14" height="14" viewBox="0 0 14 14" fill="none" xmlns="http://www.w3.org/2000/svg">
<g clip-path="url(#clip0_221_1730)">
<path d="M9.92601 12.2499H1.88301C1.40701 12.2499 0.994015 11.9769 0.994015 11.6619V2.30986C0.994015 1.99486 1.40701 1.72186 1.88301 1.72186H9.87001C10.136 1.72186 10.353 1.50486 10.353 1.23886C10.353 0.972859 10.136 0.755859 9.87001 0.755859H1.88301C0.861015 0.755859 0.0280151 1.45586 0.0280151 2.31686V11.6689C0.0280151 12.5299 0.861015 13.2299 1.88301 13.2299H9.92601C10.192 13.2299 10.409 13.0129 10.409 12.7469C10.409 12.4669 10.192 12.2499 9.92601 12.2499Z" fill="#FF5F33"/>
<path d="M13.86 6.74091C13.853 6.73391 13.846 6.73391 13.839 6.72691L11.914 4.80191C11.725 4.61291 11.417 4.61291 11.228 4.80191C11.039 4.99091 11.039 5.29891 11.228 5.48791L12.243 6.50291H5.98501C5.71901 6.50291 5.50201 6.71991 5.50201 6.98591C5.50201 7.25191 5.71901 7.46891 5.98501 7.46891H12.439L11.221 8.68691C11.032 8.87591 11.032 9.18391 11.221 9.37291C11.41 9.56191 11.718 9.56191 11.907 9.37291L13.832 7.44791C13.839 7.44091 13.846 7.44091 13.853 7.43391C13.951 7.33591 13.993 7.21691 13.993 7.09091C14 6.95791 13.951 6.83891 13.86 6.74091Z" fill="#FF5F33"/>
</g>
<defs>
<clipPath id="clip0_221_1730">
<rect width="14" height="14" fill="white"/>
</clipPath>
</defs>
</svg>
