<svg width="19" height="22" viewBox="0 0 19 22" fill="none" xmlns="http://www.w3.org/2000/svg">
<path d="M1.49557 21.976C1.25003 21.976 1.01565 21.909 0.792429 21.7862C0.301346 21.5072 0 20.9715 0 20.3799V1.59602C0 0.714302 0.669659 0 1.49557 0H17.1656C17.9915 0 18.6611 0.714302 18.6611 1.59602V20.3799C18.6611 20.9715 18.3598 21.5072 17.8687 21.7862C17.4223 22.0429 16.8866 22.0318 16.4401 21.7751L9.47567 17.6678C9.37522 17.612 9.26361 17.612 9.16316 17.6678L2.19871 21.7751C1.98665 21.909 1.74111 21.976 1.49557 21.976ZM17.0093 20.8152C17.1098 20.871 17.2102 20.871 17.3107 20.8152C17.4223 20.7483 17.5339 20.6032 17.5339 20.3799V1.59602C17.5339 1.33932 17.3665 1.1161 17.1544 1.1161H1.48441C1.28351 1.1161 1.10494 1.33932 1.10494 1.59602V20.3799C1.10494 20.6032 1.21655 20.7594 1.32816 20.8152C1.4286 20.871 1.52905 20.871 1.6295 20.8152L8.59395 16.708C9.04039 16.4401 9.58728 16.4401 10.0337 16.708L17.0093 20.8152Z" fill="#012733"/>
<path d="M9.33057 9.20778C7.92428 9.20778 6.78586 8.06936 6.78586 6.6854C6.78586 5.30144 7.92428 4.15186 9.33057 4.15186C10.7368 4.15186 11.8753 5.29027 11.8753 6.67424C11.8753 8.0582 10.7368 9.20778 9.33057 9.20778ZM9.33057 5.26795C8.5493 5.26795 7.90196 5.90413 7.90196 6.67424C7.90196 7.44434 8.53814 8.08052 9.33057 8.08052C10.123 8.08052 10.7592 7.44434 10.7592 6.67424C10.7592 5.90413 10.1118 5.26795 9.33057 5.26795ZM12.8798 13.3597H5.78138C5.46887 13.3597 5.22333 13.1141 5.22333 12.8016C5.22333 12.4891 5.46887 12.2436 5.78138 12.2436H12.8798C13.1923 12.2436 13.4378 12.4891 13.4378 12.8016C13.4378 13.1141 13.1923 13.3597 12.8798 13.3597Z" fill="#012733"/>
</svg>
