<svg width="16" height="16" viewBox="0 0 16 16" fill="none" xmlns="http://www.w3.org/2000/svg">
<path d="M9.03246 8.06829C9.70369 7.72967 10.5386 7.30815 10.5386 6.16637C10.5386 4.86558 9.41699 3.95703 7.81051 3.95703C6.64192 3.95703 5.61225 4.62704 5.24858 5.62425C5.1648 5.85407 5.09261 6.23574 5.16408 6.55596C5.20738 6.74922 5.40014 6.8704 5.59276 6.82795C5.78626 6.78465 5.90786 6.59275 5.86477 6.39928C5.83569 6.26889 5.86056 6.04141 5.92295 5.87013C6.13994 5.27516 6.80768 4.67493 7.81049 4.67493C8.99422 4.67493 9.82079 5.28815 9.82079 6.16638C9.82079 6.83268 9.39836 7.07968 8.70924 7.42749C8.10914 7.73041 7.3622 8.1074 7.3622 9.03896V9.92711C7.3622 10.1254 7.52275 10.2862 7.72114 10.2862C7.91952 10.2862 8.08005 10.1254 8.08005 9.92711V9.03896C8.08008 8.57184 8.42435 8.37536 9.03246 8.06829Z" fill="#888888"/>
<path d="M7.18283 11.4691C7.18283 11.7665 7.42387 12.0075 7.72125 12.0075C8.01857 12.0075 8.25967 11.7665 8.25967 11.4691C8.25967 11.1717 8.01857 10.9307 7.72125 10.9307C7.42387 10.9307 7.18283 11.1717 7.18283 11.4691Z" fill="#888888"/>
<path d="M14.7879 7.99211C14.7879 4.22565 11.7347 1.17236 7.96786 1.17236C4.20133 1.17201 1.14807 4.22524 1.14807 7.99211C1.14807 11.7587 4.20136 14.8119 7.96815 14.8119C9.51426 14.8119 10.9306 14.2858 12.0744 13.4189C12.1215 13.3657 12.1524 13.2975 12.1524 13.221C12.1524 13.054 12.0169 12.9186 11.85 12.9186C11.7631 12.9186 11.6858 12.9531 11.6312 13.0113H11.627C10.6034 13.7647 9.34327 14.2158 7.97501 14.2158C4.5644 14.2158 1.79917 11.4502 1.79917 8.03953C1.79917 4.62856 4.5644 1.8637 7.97501 1.8637C11.386 1.8637 14.1509 4.62856 14.1509 8.03953C14.1509 9.08142 13.9067 10.0617 13.4509 10.9233V10.9283C13.4427 10.957 13.4333 10.9851 13.4333 11.016C13.4333 11.183 13.5688 11.3183 13.7358 11.3183C13.8653 11.3183 13.9742 11.235 14.0169 11.1197V11.1219C14.5017 10.1835 14.7879 9.12157 14.7879 7.99211Z" fill="#888888"/>
</svg>
