<svg width="24" height="23" viewBox="0 0 24 23" fill="none" xmlns="http://www.w3.org/2000/svg">
<path d="M15.0041 21.2239H20.0054V10.1109H21.1168V21.2294C21.1168 21.8407 20.6211 22.3358 20.0054 22.3358H13.8927V16.7782H9.44705V22.3353H3.33431C2.72026 22.3353 2.2229 21.8407 2.2229 21.2294V10.1104H3.33431V21.2239H8.33564V15.6668H15.0041V21.2239Z" fill="#3D3D3D"/>
<path d="M0.93868 11.0686C0.885772 11.1189 0.823479 11.1582 0.755357 11.1844C0.687235 11.2107 0.614619 11.2232 0.541654 11.2213C0.394295 11.2176 0.254461 11.1554 0.152915 11.0486C0.0513689 10.9417 -0.00357147 10.7989 0.00018026 10.6516C0.00393199 10.5042 0.0660684 10.3644 0.17292 10.2628L10.479 0.472439C10.8013 0.168984 11.2272 0 11.6699 0C12.1125 0 12.5385 0.168984 12.8607 0.472439L23.1674 10.2628C23.2742 10.3644 23.3364 10.5042 23.3401 10.6516C23.3439 10.7989 23.2889 10.9417 23.1874 11.0486C23.0858 11.1554 22.946 11.2176 22.7986 11.2213C22.6513 11.2251 22.5085 11.1701 22.4016 11.0686L12.0955 1.27821C11.9798 1.1708 11.8278 1.11111 11.6699 1.11111C11.512 1.11111 11.3599 1.1708 11.2442 1.27821L0.939235 11.0686H0.93868ZM20.0054 2.88586H16.6712C16.5238 2.88586 16.3825 2.82731 16.2783 2.7231C16.174 2.61888 16.1155 2.47754 16.1155 2.33016C16.1155 2.18277 16.174 2.04143 16.2783 1.93721C16.3825 1.833 16.5238 1.77445 16.6712 1.77445H20.5611C20.6341 1.77445 20.7064 1.78883 20.7738 1.81675C20.8412 1.84468 20.9025 1.88561 20.9541 1.93721C21.0057 1.98882 21.0466 2.05008 21.0745 2.1175C21.1025 2.18492 21.1168 2.25718 21.1168 2.33016V6.22008C21.1168 6.36746 21.0583 6.50881 20.9541 6.61302C20.8499 6.71724 20.7085 6.77578 20.5611 6.77578C20.4137 6.77578 20.2724 6.71724 20.1682 6.61302C20.064 6.50881 20.0054 6.36746 20.0054 6.22008V2.88586Z" fill="#3D3D3D"/>
</svg>
