<svg width="23" height="23" viewBox="0 0 23 23" fill="none" xmlns="http://www.w3.org/2000/svg">
<path d="M0 4.44483C0 3.79616 0.257683 3.17406 0.71636 2.71538C1.17504 2.25671 1.79714 1.99902 2.44581 1.99902H20.5542C21.2029 1.99902 21.825 2.25671 22.2836 2.71538C22.7423 3.17406 23 3.79616 23 4.44483V19.8487C23 20.4974 22.7423 21.1195 22.2836 21.5782C21.825 22.0368 21.2029 22.2945 20.5542 22.2945H2.44581C1.79714 22.2945 1.17504 22.0368 0.71636 21.5782C0.257683 21.1195 0 20.4974 0 19.8487V4.44483ZM2.44581 3.12786C2.09652 3.12786 1.76155 3.26661 1.51457 3.51359C1.26759 3.76057 1.12883 4.09555 1.12883 4.44483V19.8487C1.12883 20.198 1.26759 20.533 1.51457 20.78C1.76155 21.0269 2.09652 21.1657 2.44581 21.1657H20.5542C20.9035 21.1657 21.2385 21.0269 21.4854 20.78C21.7324 20.533 21.8712 20.198 21.8712 19.8487V4.44483C21.8712 4.09555 21.7324 3.76057 21.4854 3.51359C21.2385 3.26661 20.9035 3.12786 20.5542 3.12786H2.44581Z" fill="black"/>
<path d="M6.20864 0C6.35834 0 6.5019 0.0594652 6.60775 0.165314C6.7136 0.271163 6.77306 0.414724 6.77306 0.564417V4.44478C6.77306 4.59448 6.7136 4.73804 6.60775 4.84389C6.5019 4.94974 6.35834 5.0092 6.20864 5.0092C6.05895 5.0092 5.91539 4.94974 5.80954 4.84389C5.70369 4.73804 5.64423 4.59448 5.64423 4.44478V0.564417C5.64423 0.414724 5.70369 0.271163 5.80954 0.165314C5.91539 0.0594652 6.05895 0 6.20864 0ZM16.9091 0C17.0587 0 17.2023 0.0594652 17.3082 0.165314C17.414 0.271163 17.4735 0.414724 17.4735 0.564417V4.44478C17.4735 4.59448 17.414 4.73804 17.3082 4.84389C17.2023 4.94974 17.0587 5.0092 16.9091 5.0092C16.7594 5.0092 16.6158 4.94974 16.5099 4.84389C16.4041 4.73804 16.3446 4.59448 16.3446 4.44478V0.564417C16.3446 0.414724 16.4041 0.271163 16.5099 0.165314C16.6158 0.0594652 16.7594 0 16.9091 0ZM7.42684 7.66337C7.46743 7.6013 7.51986 7.54784 7.58112 7.50604C7.64238 7.46424 7.71128 7.43492 7.78388 7.41976C7.85648 7.40461 7.93135 7.40391 8.00422 7.4177C8.07709 7.4315 8.14653 7.45952 8.20856 7.50016L11.5466 9.68493L14.7854 7.5044C14.9096 7.42564 15.0596 7.39844 15.2035 7.42857C15.3474 7.45871 15.4738 7.5438 15.5559 7.66575C15.6381 7.78771 15.6694 7.93689 15.6432 8.08156C15.617 8.22623 15.5354 8.35497 15.4157 8.44039L12.1153 10.6628V11.8894H16.3211C16.3952 11.8894 16.4686 11.904 16.5371 11.9324C16.6056 11.9608 16.6678 12.0023 16.7202 12.0548C16.7726 12.1072 16.8142 12.1694 16.8426 12.2379C16.8709 12.3063 16.8855 12.3797 16.8855 12.4539C16.8855 12.528 16.8709 12.6014 16.8426 12.6699C16.8142 12.7383 16.7726 12.8006 16.7202 12.853C16.6678 12.9054 16.6056 12.947 16.5371 12.9753C16.4686 13.0037 16.3952 13.0183 16.3211 13.0183H12.1153V15.0681L16.3253 15.101C16.3995 15.1015 16.4728 15.1167 16.541 15.1456C16.6093 15.1744 16.6712 15.2165 16.7232 15.2693C16.7752 15.3221 16.8163 15.3846 16.8442 15.4533C16.872 15.522 16.8861 15.5955 16.8855 15.6696C16.885 15.7438 16.8698 15.817 16.841 15.8853C16.8121 15.9536 16.77 16.0155 16.7172 16.0675C16.6644 16.1195 16.6019 16.1606 16.5332 16.1885C16.4645 16.2163 16.391 16.2304 16.3169 16.2298L12.1153 16.1969V18.2025C12.1153 18.3521 12.0558 18.4957 11.95 18.6016C11.8441 18.7074 11.7005 18.7669 11.5509 18.7669C11.4012 18.7669 11.2576 18.7074 11.1517 18.6016C11.0459 18.4957 10.9864 18.3521 10.9864 18.2025V16.1922H6.67899C6.5293 16.1922 6.38574 16.1327 6.27989 16.0269C6.17404 15.921 6.11457 15.7775 6.11457 15.6278C6.11457 15.4781 6.17404 15.3345 6.27989 15.2287C6.38574 15.1228 6.5293 15.0634 6.67899 15.0634H10.9864V13.0183H6.67899C6.5293 13.0183 6.38574 12.9588 6.27989 12.853C6.17404 12.7471 6.11457 12.6036 6.11457 12.4539C6.11457 12.3042 6.17404 12.1606 6.27989 12.0548C6.38574 11.9489 6.5293 11.8894 6.67899 11.8894H10.9864V10.6675L7.59052 8.44462C7.4653 8.36265 7.37775 8.2343 7.34714 8.08779C7.31654 7.94129 7.34537 7.78862 7.42731 7.66337H7.42684Z" fill="black"/>
</svg>
