<svg width="25" height="24" viewBox="0 0 25 24" fill="none" xmlns="http://www.w3.org/2000/svg">
<path d="M23.5755 9.34816L20.3088 6.53108V2.1256C18.6023 0.0476911 17.3119 2.24549 17.3119 2.24549V3.86383L13.8954 0.896852C11.8892 -1.12106 9.96944 0.896852 9.96944 0.896852C9.96944 0.896852 3.39619 6.62044 1.18847 8.50912C-1.35715 10.6869 0.978647 11.7607 0.978647 11.7607L3.37747 12.9344L3.40626 17.0204L1.36833 18.8783C-0.0702671 20.9764 1.75787 22.6845 1.75787 22.6845C4.33519 25.262 6.7627 22.355 6.7627 22.355H19.23C20.2789 22.205 20.4587 20.8265 20.4587 20.8265L20.5486 13.1244L23.4257 11.7758C24.6844 10.607 23.5755 9.34813 23.5755 9.34813L23.5755 9.34816ZM18.3482 2.58749H19.3614V5.63396L18.3482 4.60024V2.58749ZM5.39986 22.0323C5.39986 22.0323 4.21607 23.4558 2.79256 22.0323C2.79256 22.0323 1.62373 20.9833 2.79256 19.6947L8.48674 14.0005C8.48674 14.0005 7.97882 9.16051 12.6524 9.364L12.7424 10.2244L11.0641 11.8127L13.1619 14.0305L15.08 12.2921L15.919 12.472C15.919 12.472 16.3103 17.117 11.0642 16.5178L5.39991 22.0323H5.39986ZM22.2585 11.1064L19.3815 12.3951L19.1718 19.9175C19.1118 21.3559 18.2427 21.3858 18.2427 21.3858H7.96324L11.4696 17.8794C18.6767 17.9498 16.8946 11.6233 16.8946 11.6233L14.6744 11.348L13.2732 12.6463L12.5409 11.8514L13.9054 10.5644L13.6518 8.14639C6.66437 7.44354 7.09413 13.4741 7.09413 13.4741L4.57666 15.9615L4.60667 12.0355L2.35892 11.0166C1.07032 10.4771 2.20909 9.36822 2.20909 9.36822L10.3607 2.11566C12.0133 0.527282 13.5375 2.05579 13.5375 2.05579L22.2585 9.93767C23.2775 10.627 22.2585 11.1064 22.2585 11.1064L22.2585 11.1064Z" fill="#272636"/>
</svg>
