<svg width="16" height="16" viewBox="0 0 16 16" fill="none" xmlns="http://www.w3.org/2000/svg">
<g clip-path="url(#clip0_221_1763)">
<path d="M14.8497 7.96499C14.8497 4.18189 11.7831 1.11523 7.99999 1.11523C4.21689 1.11523 1.15027 4.18189 1.15027 7.96499C1.15027 11.7482 4.21689 14.8149 7.99999 14.8149C9.55304 14.8149 10.975 14.2865 12.1241 13.4158C12.1713 13.3622 12.2023 13.2939 12.2023 13.2171C12.2023 13.0494 12.0663 12.9135 11.8987 12.9135C11.8116 12.9135 11.7341 12.948 11.6788 13.0064H11.675C10.6468 13.7631 9.38115 14.216 8.00671 14.216C4.58114 14.216 1.8037 11.4382 1.8037 8.01288C1.8037 4.58693 4.58114 1.80984 8.00671 1.80984C11.4326 1.80984 14.2097 4.58693 14.2097 8.01288C14.2097 9.05902 13.9642 10.0439 13.5063 10.909V10.9141C13.4978 10.943 13.4887 10.9712 13.4887 11.0022C13.4887 11.1699 13.6246 11.3058 13.7923 11.3058C13.923 11.3058 14.0322 11.222 14.0748 11.1064V11.1085C14.5626 10.1658 14.8497 9.09921 14.8497 7.96499ZM8.42796 6.20391C8.42796 6.00597 8.26663 5.84483 8.06798 5.84483C7.87 5.84483 7.70902 6.00597 7.70902 6.20391V11.3298C7.70902 11.5277 7.87 11.6891 8.06833 11.6891C8.26698 11.6891 8.42796 11.5277 8.42796 11.3298C8.42796 11.3291 8.42727 11.3283 8.42727 11.3277V6.20639C8.42727 6.20569 8.42796 6.20465 8.42796 6.20391ZM8.06868 4.31922C7.86719 4.31922 7.7041 4.48161 7.7041 4.68328C7.7041 4.88445 7.86719 5.04751 8.06868 5.04751C8.26946 5.04751 8.4329 4.88444 8.4329 4.68328C8.4329 4.48161 8.26944 4.31922 8.06868 4.31922Z" fill="#888888"/>
</g>
<defs>
<clipPath id="clip0_221_1763">
<rect width="16" height="16" fill="white"/>
</clipPath>
</defs>
</svg>
