<svg width="16" height="16" viewBox="0 0 16 16" fill="none" xmlns="http://www.w3.org/2000/svg">
<g clip-path="url(#clip0_221_1755)">
<path d="M7.96794 5.29646C6.46911 5.29646 5.24946 6.51573 5.24946 8.01418C5.24946 9.51283 6.4691 10.7321 7.96794 10.7321C8.39502 10.7321 8.79812 10.6303 9.1581 10.454L9.15772 10.4531C9.2553 10.4036 9.3222 10.3027 9.3222 10.1859C9.3222 10.0203 9.18797 9.88531 9.02199 9.88531C8.98304 9.88531 8.94594 9.89297 8.91181 9.90651L8.91022 9.903C8.6259 10.045 8.30687 10.1272 7.96794 10.1272C6.8025 10.1272 5.85468 9.17939 5.85468 8.01415C5.85468 6.84908 6.8025 5.90163 7.96794 5.90163C9.13339 5.90163 10.0819 6.84908 10.0819 8.01415C10.0819 8.22217 10.0502 8.42298 9.99418 8.6129L9.99957 8.61499C9.99386 8.63811 9.9905 8.66217 9.9905 8.68704C9.9905 8.85262 10.1247 8.98688 10.2907 8.98688C10.4051 8.98688 10.5044 8.9231 10.555 8.82921L10.5603 8.83124C10.5654 8.81484 10.5705 8.79835 10.5753 8.78182C10.5777 8.77472 10.5797 8.76745 10.5816 8.76011C10.6494 8.52291 10.6864 8.27289 10.6864 8.01416C10.6864 6.51573 9.46716 5.29646 7.96794 5.29646ZM14.4006 6.51369H13.3658C13.3123 6.31786 13.2463 6.12092 13.1644 5.91511L13.1039 5.7698C13.0243 5.58504 12.9328 5.40322 12.8332 5.22802L13.5646 4.49668C13.6398 4.42142 13.6815 4.32148 13.6815 4.21527C13.6815 4.10905 13.6398 4.0091 13.5646 3.93386L12.0492 2.41879C11.8983 2.26795 11.6361 2.26795 11.486 2.41879L10.7546 3.15014C10.5769 3.04908 10.3895 2.95579 10.18 2.86505L10.0443 2.80973C9.85693 2.73595 9.66443 2.67142 9.46898 2.61757V1.58349C9.46898 1.36405 9.29048 1.18555 9.07066 1.18555H6.9279C6.70809 1.18555 6.5296 1.36442 6.5296 1.58349V2.61763C6.33411 2.67147 6.14122 2.73565 5.95498 2.80979L5.78681 2.87949C5.60242 2.95914 5.42021 3.05023 5.24466 3.15018L4.51297 2.41884C4.36249 2.26836 4.10062 2.26836 3.9498 2.41884L2.43473 3.93391C2.35948 4.00878 2.31781 4.1091 2.31781 4.21532C2.31781 4.32153 2.35911 4.4211 2.43473 4.49673L3.16607 5.22807C3.06502 5.40582 2.97134 5.59467 2.87841 5.80931L2.82493 5.93877C2.7508 6.1254 2.687 6.31789 2.63352 6.51373H1.59864C1.3792 6.51373 1.20068 6.69261 1.20068 6.91168V9.05445C1.20068 9.27352 1.3792 9.45201 1.59864 9.45201H2.63352C2.68737 9.64858 2.75374 9.8459 2.83599 10.0539L2.89536 10.1963C2.97577 10.3814 3.06649 10.5629 3.16607 10.7373L2.43509 11.4688C2.27982 11.6237 2.27982 11.8767 2.43509 12.0316L3.95015 13.5467C4.10062 13.6964 4.36249 13.6972 4.51295 13.5467L5.24465 12.815C5.42019 12.9153 5.6013 13.006 5.7846 13.0857L5.9085 13.1373L5.9557 13.1565C6.14232 13.2302 6.33485 13.2944 6.53032 13.3475V14.3817C6.53032 14.6015 6.70881 14.78 6.92862 14.78H9.07138C9.29123 14.78 9.4697 14.6007 9.4697 14.3817V13.3475C9.66592 13.2937 9.86247 13.228 10.0672 13.1469L10.2132 13.0864C10.3984 13.006 10.5798 12.9153 10.7554 12.815L11.4871 13.5467C11.6372 13.6964 11.8994 13.6971 12.0499 13.5467L13.5657 12.0316C13.7206 11.8767 13.7206 11.6237 13.5657 11.4688L12.834 10.7373C12.9343 10.5614 13.0273 10.3748 13.1165 10.1682L13.1401 10.1122L13.1748 10.0266C13.2489 9.83888 13.3131 9.64635 13.3665 9.45197H14.4014C14.6209 9.45197 14.7994 9.27384 14.7994 9.05442V6.91165C14.7986 6.69258 14.6201 6.51369 14.4006 6.51369ZM14.1657 8.81874H12.8679L12.7956 9.12632C12.7414 9.355 12.6699 9.58034 12.5773 9.81378L12.5552 9.8691L12.5235 9.94398C12.4305 10.1586 12.3217 10.3674 12.1996 10.5643L12.0337 10.8332L12.9509 11.7506L11.7681 12.933L10.8513 12.0161L10.582 12.1813C10.3799 12.306 10.1734 12.4129 9.93219 12.5184L9.81123 12.5671C9.5929 12.6534 9.36793 12.7242 9.14259 12.7781L8.83535 12.8511V14.1463H7.16283V12.8511L6.85563 12.7781C6.62253 12.722 6.39758 12.6505 6.14752 12.5516L6.03612 12.5052C5.82369 12.4129 5.61569 12.3038 5.41618 12.1813L5.1473 12.0161L4.23045 12.933L3.04769 11.7506L3.96454 10.8332L3.79894 10.5643C3.67539 10.3648 3.56658 10.1546 3.4659 9.9226L3.41354 9.79313C3.32761 9.57629 3.25716 9.35203 3.20368 9.12559L3.1303 8.81874H1.83395V7.14656H3.1303L3.20368 6.83973C3.25863 6.60813 3.33129 6.37983 3.42533 6.14305L3.47586 6.02171C3.5677 5.80928 3.67651 5.60054 3.79931 5.40101L3.96526 5.13215L3.04841 4.21565L4.23117 3.03327L5.14766 3.94975L5.4169 3.78415C5.61606 3.66134 5.82555 3.5529 6.0575 3.4526L6.18956 3.39838C6.40197 3.31393 6.6262 3.24313 6.85562 3.18817L7.16318 3.11589V1.81915H8.8361V3.11589L9.14365 3.18817C9.37381 3.24276 9.59584 3.31319 9.84071 3.40983L9.9617 3.46072C10.1767 3.55365 10.3858 3.66246 10.5828 3.78417L10.8516 3.94977L11.7681 3.03329L12.9512 4.21567L12.0344 5.13217L12.1996 5.40066C12.3228 5.60092 12.4319 5.8115 12.5334 6.04534L12.5861 6.17295C12.6717 6.39018 12.7425 6.61441 12.7963 6.83901L12.8686 7.14658H14.1657V8.81874H14.1657Z" fill="#888888"/>
</g>
<defs>
<clipPath id="clip0_221_1755">
<rect width="16" height="16" fill="white"/>
</clipPath>
</defs>
</svg>
