<svg width="16" height="16" viewBox="0 0 16 16" fill="none" xmlns="http://www.w3.org/2000/svg">
<path d="M8.02026 15.4655C6.81245 15.4655 5.82808 14.4812 5.82808 13.2733C5.82808 12.9515 5.95151 12.6265 6.17339 12.3577C6.3062 12.1983 6.54214 12.1765 6.70151 12.3077C6.86089 12.439 6.88276 12.6765 6.75151 12.8358C6.64058 12.9687 6.57808 13.128 6.57808 13.2733C6.57808 14.0687 7.22495 14.7155 8.02026 14.7155C8.62495 14.7155 9.1687 14.3343 9.37495 13.7671C9.49995 13.4046 9.64058 13.1937 9.8437 13.0593C10.0703 12.9108 10.325 12.8983 10.5656 12.8983H12.3812C12.6937 12.8983 12.9406 12.8312 13.0937 12.703C13.2281 12.5921 13.2562 12.4593 13.2562 12.3687C13.2562 12.1062 13.0296 11.828 12.6093 11.828C12.4093 11.828 12.2437 11.6702 12.2343 11.4687C12.1625 9.81709 12.0203 6.99209 12.0078 6.76396C11.7156 4.51865 10.7156 3.1999 9.03276 2.84365C8.85933 2.80771 8.73589 2.65459 8.73589 2.47646V2.00459C8.73589 1.61084 8.41558 1.28896 8.02026 1.28896C7.62651 1.28896 7.30464 1.60928 7.30464 2.00459V2.47959C7.30464 2.65615 7.1812 2.80771 7.00933 2.84521C6.20933 3.02021 5.55464 3.42803 5.06558 4.05771C4.5562 4.7124 4.20933 5.62334 4.0312 6.76709C4.0187 7.03271 3.8812 9.8874 3.80308 11.4905C3.7937 11.6905 3.62808 11.8468 3.42808 11.8468C3.01089 11.8468 2.76245 12.1218 2.76245 12.389C2.76245 12.4749 2.79058 12.5983 2.92183 12.7046C3.0312 12.7921 3.24683 12.8968 3.65776 12.8968H5.10464C5.31245 12.8968 5.47964 13.064 5.47964 13.2718C5.47964 13.4796 5.31245 13.6468 5.10464 13.6468H3.65776C3.15464 13.6468 2.74839 13.5265 2.45308 13.289C2.1687 13.0608 2.01245 12.7421 2.01245 12.389C2.01245 12.0577 2.1562 11.7296 2.4062 11.489C2.58745 11.3155 2.81558 11.1952 3.0687 11.1374C3.15308 9.4249 3.2812 6.74053 3.28276 6.7124C3.28276 6.6999 3.28433 6.68584 3.28745 6.67334C3.48433 5.39365 3.88276 4.35928 4.47339 3.59834C5.01089 2.90615 5.70933 2.43271 6.55308 2.18896V2.00615C6.55308 1.19834 7.21089 0.540527 8.0187 0.540527C8.82651 0.540527 9.48433 1.19834 9.48433 2.00615V2.18428C10.3437 2.4249 11.0515 2.89365 11.5906 3.58115C12.1953 4.3499 12.5859 5.39365 12.7515 6.68271C12.7531 6.69209 12.7531 6.70146 12.7546 6.71084C12.7562 6.73896 12.889 9.37646 12.9671 11.1171C13.2171 11.1765 13.4421 11.2968 13.6203 11.4702C13.864 11.7093 14.0046 12.0358 14.0046 12.3671C14.0046 12.7218 13.8515 13.0452 13.5734 13.2765C13.2843 13.5171 12.8718 13.6452 12.3812 13.6452H10.5671C10.4421 13.6452 10.3078 13.6499 10.2578 13.6827C10.2281 13.7015 10.1671 13.7702 10.0843 14.0108C10.0843 14.0124 10.0828 14.0155 10.0828 14.0171C9.7687 14.8843 8.94058 15.4655 8.02026 15.4655Z" fill="#888888"/>
</svg>
