<svg width="39" height="39" viewBox="0 0 39 39" fill="none" xmlns="http://www.w3.org/2000/svg">
<path d="M28.275 8.2876C28.275 7.8001 28.5188 7.3126 28.7625 6.8251C29.25 6.58135 29.7375 6.3376 30.225 6.3376C30.7125 6.3376 31.2 6.58135 31.6875 6.8251C32.175 7.06885 32.175 7.8001 32.175 8.2876C32.175 8.7751 31.9313 9.2626 31.6875 9.7501C31.2 9.99385 30.7125 10.2376 30.225 10.2376C29.7375 10.2376 29.25 9.99385 28.7625 9.7501C28.5188 9.2626 28.275 8.7751 28.275 8.2876ZM22.9125 4.8751C22.9125 4.3876 23.1563 3.65635 23.6438 3.16885C24.1313 2.68135 24.6188 2.4376 25.35 2.4376C26.0813 2.4376 26.5688 2.68135 27.0563 3.16885C27.5438 3.65635 27.7875 4.14385 27.7875 4.8751C27.7875 5.60635 27.5438 6.09385 27.0563 6.58135C26.5688 7.06885 26.0813 7.3126 25.35 7.3126C24.6188 7.3126 24.1313 7.06885 23.6438 6.58135C23.1563 6.09385 22.9125 5.60635 22.9125 4.8751ZM15.8438 3.9001C15.8438 3.16885 16.0875 2.4376 16.575 1.9501C17.0625 1.4626 17.7938 1.21885 18.525 1.21885C19.2563 1.21885 19.9875 1.4626 20.475 1.9501C20.9625 2.4376 21.2063 3.16885 21.2063 3.9001C21.2063 4.63135 20.9625 5.3626 20.475 5.8501C19.9875 6.3376 19.2563 6.58135 18.525 6.58135C17.7938 6.58135 17.0625 6.3376 16.575 5.8501C16.0875 5.3626 15.8438 4.63135 15.8438 3.9001ZM6.82501 4.3876C6.82501 3.4126 7.31251 2.68135 7.80001 1.9501C8.53126 1.21885 9.50626 0.975098 10.2375 0.975098C11.2125 0.975098 12.1875 1.4626 12.675 1.9501C13.4063 2.68135 13.65 3.4126 13.65 4.3876C13.65 5.3626 13.1625 6.09385 12.675 6.8251C11.9438 7.55635 10.9688 7.8001 10.2375 7.8001C9.26251 7.8001 8.28751 7.3126 7.80001 6.8251C7.06876 6.09385 6.82501 5.3626 6.82501 4.3876ZM23.4 8.7751H14.625H14.3813H13.8938C10.725 9.01885 8.28751 11.4563 8.28751 14.6251C8.28751 16.8188 9.50626 18.5251 11.2125 19.7438C11.2125 19.7438 14.625 21.4501 11.2125 29.9813C10.9688 30.7126 10.725 31.4438 10.725 32.1751C10.725 35.3438 13.4063 38.0251 16.8188 38.0251C18.2813 38.0251 19.7438 37.5376 20.7188 36.5626C26.8125 31.6876 30.7125 24.3751 30.7125 16.0876V15.8438C30.7125 12.1876 27.5438 8.7751 23.4 8.7751Z" fill="#FF98A9"/>
</svg>
