<svg width="38" height="32" viewBox="0 0 38 32" fill="none" xmlns="http://www.w3.org/2000/svg">
<path d="M34.8151 2.96065C32.8335 0.998638 30.1917 0.00979537 27.5611 0.00979537C25.0848 0.00979537 22.6218 0.88746 20.7362 2.65797C19.9433 3.33826 19.3683 3.86819 18.9 3.86819C18.4005 3.86819 17.9602 3.36961 17.0688 2.65797C15.0519 0.878155 12.5904 0 10.1503 0C7.54966 0 4.97544 0.996679 2.99187 2.96065C-0.997291 6.90867 -0.997291 13.6592 2.99187 17.6072L17.3847 31.5195C17.6717 31.8065 18.3216 32 18.9755 32C19.5274 32 20.0814 31.8614 20.4213 31.521L34.8156 17.6067C38.8018 13.6592 38.8018 6.90818 34.8151 2.96065ZM11.0206 4.88397C10.9682 5.33407 10.5568 5.66025 10.1092 5.60491C9.59885 5.54614 8.11632 5.77388 7.04667 6.84353C6.16361 7.72512 5.62487 9.00488 5.60626 10.2675C5.59891 10.7166 5.23207 11.0766 4.78443 11.0766H4.7712C4.31719 11.0702 3.95525 10.6965 3.96161 10.243C3.98757 8.56213 4.70606 6.85774 5.88543 5.6818C7.34493 4.22131 9.32654 3.86133 10.3002 3.973C10.7498 4.02541 11.0726 4.43387 11.0206 4.88397Z" fill="#FF98A9"/>
</svg>
